<svg data-v-423bf9ae="" xmlns="http://www.w3.org/2000/svg" viewBox="0 0 160.29154444914744 60" class="font"><!----><!----><!----><g data-v-423bf9ae="" id="2cff674e-4176-4a84-867f-b8395e0cb39e" fill="white" transform="matrix(5.830904006958008,0,0,5.830904006958008,-2.7405340671539307,-20.349857330322266)"><path d="M7.70 13.64L6.84 11.06L2.83 11.06L1.99 13.64L0.47 13.64L4.02 3.63L5.94 3.63L9.49 13.64L7.70 13.64ZM3.19 9.90L6.47 9.90L5.28 6.19L4.90 4.76L4.76 4.76L4.40 6.19L3.19 9.90ZM18.87 11.80L18.87 12.69L18.87 12.69Q18.51 13.01 18.07 13.22L18.07 13.22L18.07 13.22Q17.63 13.43 17.18 13.55L17.18 13.55L17.18 13.55Q16.72 13.68 16.28 13.73L16.28 13.73L16.28 13.73Q15.84 13.78 15.48 13.78L15.48 13.78L15.48 13.78Q14.48 13.78 13.61 13.43L13.61 13.43L13.61 13.43Q12.75 13.08 12.11 12.44L12.11 12.44L12.11 12.44Q11.48 11.81 11.12 10.90L11.12 10.90L11.12 10.90Q10.75 9.99 10.75 8.89L10.75 8.89L10.75 8.89Q10.75 8.04 10.96 7.31L10.96 7.31L10.96 7.31Q11.18 6.58 11.55 5.98L11.55 5.98L11.55 5.98Q11.93 5.39 12.45 4.92L12.45 4.92L12.45 4.92Q12.97 4.46 13.58 4.14L13.58 4.14L13.58 4.14Q14.20 3.82 14.89 3.66L14.89 3.66L14.89 3.66Q15.58 3.49 16.30 3.49L16.30 3.49L16.30 3.49Q16.54 3.49 16.83 3.51L16.83 3.51L16.83 3.51Q17.12 3.53 17.46 3.58L17.46 3.58L17.46 3.58Q17.79 3.62 18.15 3.69L18.15 3.69L18.15 3.69Q18.51 3.77 18.88 3.88L18.88 3.88L18.61 5.20L18.47 5.27L18.47 5.27Q17.76 4.94 17.14 4.82L17.14 4.82L17.14 4.82Q16.52 4.70 16.07 4.70L16.07 4.70L16.07 4.70Q15.29 4.70 14.64 4.99L14.64 4.99L14.64 4.99Q13.98 5.29 13.51 5.81L13.51 5.81L13.51 5.81Q13.04 6.33 12.77 7.04L12.77 7.04L12.77 7.04Q12.51 7.75 12.51 8.56L12.51 8.56L12.51 8.56Q12.51 9.36 12.76 10.08L12.76 10.08L12.76 10.08Q13.00 10.79 13.48 11.34L13.48 11.34L13.48 11.34Q13.95 11.88 14.64 12.20L14.64 12.20L14.64 12.20Q15.33 12.52 16.23 12.52L16.23 12.52L16.23 12.52Q16.80 12.52 17.47 12.37L17.47 12.37L17.47 12.37Q18.15 12.21 18.87 11.80L18.87 11.80ZM22.78 4.83L22.78 13.64L21.08 13.64L21.08 3.63L24.10 3.63L24.10 3.63Q24.96 3.63 25.67 3.84L25.67 3.84L25.67 3.84Q26.38 4.05 26.89 4.45L26.89 4.45L26.89 4.45Q27.40 4.85 27.68 5.43L27.68 5.43L27.68 5.43Q27.96 6.01 27.96 6.76L27.96 6.76L27.96 6.76Q27.96 7.57 27.65 8.20L27.65 8.20L27.65 8.20Q27.34 8.84 26.84 9.28L26.84 9.28L26.84 9.28Q26.33 9.72 25.68 9.96L25.68 9.96L25.68 9.96Q25.03 10.19 24.36 10.19L24.36 10.19L24.36 10.19Q24.27 10.19 24.17 10.19L24.17 10.19L24.17 10.19Q24.07 10.18 23.93 10.16L23.93 10.16L24.04 9.02L24.04 9.02Q24.14 9.04 24.23 9.04L24.23 9.04L24.23 9.04Q24.32 9.04 24.39 9.04L24.39 9.04L24.39 9.04Q24.80 9.04 25.14 8.91L25.14 8.91L25.14 8.91Q25.48 8.77 25.73 8.50L25.73 8.50L25.73 8.50Q25.98 8.24 26.12 7.85L26.12 7.85L26.12 7.85Q26.26 7.46 26.26 6.96L26.26 6.96L26.26 6.96Q26.26 6.40 26.10 6.00L26.10 6.00L26.10 6.00Q25.94 5.59 25.62 5.33L25.62 5.33L25.62 5.33Q25.31 5.07 24.87 4.95L24.87 4.95L24.87 4.95Q24.43 4.83 23.88 4.83L23.88 4.83L22.78 4.83Z"></path></g><!----><!----></svg>